<svg width="592" height="506" viewBox="0 0 592 506" fill="none" xmlns="http://www.w3.org/2000/svg">
<path d="M282 16.3352L10 173.374V486.67L40 469.35V192.395C40 190.609 40.9531 188.958 42.5 188.065L282 49.7883V61.3352L50 195.281V463.575L77 447.988V216.032C77 214.246 77.953 212.596 79.5 211.702L282 94.7883V106.335L87 218.918V442.214L117 424.894V237.939C117 236.152 117.953 234.502 119.5 233.609L282 139.788V151.335L127 240.824V419.119L155 402.954V261.999C155 260.213 155.953 258.562 157.5 257.669L282 185.788V197.335L165 264.885V397.181L195 379.861V281.33C195 279.544 195.953 277.893 197.5 277L282 228.213V239.76L205 284.216V382.747C205 384.534 204.047 386.184 202.5 387.077L124.5 432.111L47.5 476.567L7.5 499.66C5.95299 500.554 4.04701 500.554 2.5 499.66C0.953007 498.767 0 497.117 0 495.33V170.489C0 168.702 0.953038 167.052 2.5 166.158L282 4.78931V16.3352Z" fill="#334255"/>
<path d="M586.25 161.395C589.499 163.27 591.5 166.737 591.5 170.489V495.33C591.5 499.082 589.499 502.548 586.25 504.424C583.001 506.3 578.999 506.3 575.75 504.424L535.75 481.329L458.75 436.873L380.75 391.84C377.501 389.964 375.5 386.498 375.5 382.747V287.393L307 247.844V223.595L391.25 272.237C394.499 274.112 396.5 277.579 396.5 281.33V376.684L415.5 387.654V268.061L307 205.418V181.169L431.25 252.906C434.499 254.781 436.5 258.248 436.5 261.999V399.779L453.5 409.593V244L307 159.419V135.169L469.25 228.845C472.499 230.721 474.5 234.187 474.5 237.939V421.717L493.5 432.687V222.094L307 114.419V90.1692L509.25 206.939C512.499 208.814 514.5 212.281 514.5 216.032V444.812L530.5 454.049V198.456L307 69.4192V45.1692L546.25 183.301C549.499 185.177 551.5 188.643 551.5 192.395V466.173L570.5 477.143V176.55L307 24.4192V0.169189L586.25 161.395Z" fill="#334255"/>
</svg>
