<svg width="1000" height="1000" viewBox="0 0 1000 1000" fill="none" xmlns="http://www.w3.org/2000/svg">
<rect width="1000" height="1000" rx="500" fill="#334255"/>
<path d="M486.25 263.335L214.25 420.374V733.67L244.25 716.35V439.395C244.25 437.609 245.203 435.958 246.75 435.065L486.25 296.788V308.335L254.25 442.281V710.575L281.25 694.988V463.032C281.25 461.246 282.203 459.596 283.75 458.702L486.25 341.788V353.335L291.25 465.918V689.214L321.25 671.894V484.939C321.25 483.152 322.203 481.502 323.75 480.609L486.25 386.788V398.335L331.25 487.824V666.119L359.25 649.954V508.999C359.25 507.213 360.203 505.562 361.75 504.669L486.25 432.788V444.335L369.25 511.885V644.181L399.25 626.861V528.33C399.25 526.544 400.203 524.893 401.75 524L486.25 475.213V486.76L409.25 531.216V629.747C409.25 631.534 408.297 633.184 406.75 634.077L328.75 679.111L251.75 723.567L211.75 746.66C210.203 747.554 208.297 747.554 206.75 746.66C205.203 745.767 204.25 744.117 204.25 742.33V417.489C204.25 415.702 205.203 414.052 206.75 413.158L486.25 251.789V263.335Z" fill="white"/>
<path d="M790.5 408.395C793.749 410.27 795.75 413.737 795.75 417.489V742.33C795.75 746.082 793.749 749.548 790.5 751.424C787.251 753.3 783.249 753.3 780 751.424L740 728.329L663 683.873L585 638.84C581.751 636.964 579.75 633.498 579.75 629.747V534.393L511.25 494.844V470.595L595.5 519.237C598.749 521.112 600.75 524.579 600.75 528.33V623.684L619.75 634.654V515.061L511.25 452.418V428.169L635.5 499.906C638.749 501.781 640.75 505.248 640.75 508.999V646.779L657.75 656.593V491L511.25 406.419V382.169L673.5 475.845C676.749 477.721 678.75 481.187 678.75 484.939V668.717L697.75 679.687V469.094L511.25 361.419V337.169L713.5 453.939C716.749 455.814 718.75 459.281 718.75 463.032V691.812L734.75 701.049V445.456L511.25 316.419V292.169L750.5 430.301C753.749 432.177 755.75 435.643 755.75 439.395V713.173L774.75 724.143V423.55L511.25 271.419V247.169L790.5 408.395Z" fill="white"/>
</svg>
